<svg width="40" height="40" viewBox="0 0 40 40" fill="none" xmlns="http://www.w3.org/2000/svg">
<path d="M9.375 20C9.375 18.0183 9.92102 16.1618 10.8696 14.5722V7.82935H4.1268C1.45063 11.305 0 15.5408 0 20C0 24.4593 1.45063 28.6951 4.1268 32.1708H10.8696V25.4279C9.92102 23.8383 9.375 21.9818 9.375 20Z" fill="#FBBD00"/>
<path d="M20 30.6251L15.3125 35.3126L20 40.0001C24.4593 40.0001 28.6951 38.5494 32.1707 35.8733V29.1376H25.4351C23.8316 30.0897 21.9673 30.6251 20 30.6251Z" fill="#0F9D58"/>
<path d="M10.8696 25.4279L4.12683 32.1707C4.65667 32.8589 5.23363 33.5178 5.85792 34.1422C9.63543 37.9196 14.6578 40 20 40V30.625C16.1232 30.625 12.7253 28.5375 10.8696 25.4279Z" fill="#31AA52"/>
<path d="M40 20C40 18.7832 39.8898 17.5642 39.6725 16.3768L39.4966 15.416H20V24.791H29.4884C28.567 26.6238 27.1503 28.1192 25.435 29.1377L32.1706 35.8733C32.8587 35.3435 33.5177 34.7665 34.1421 34.1422C37.9196 30.3646 40 25.3422 40 20Z" fill="#3C79E6"/>
<path d="M27.513 12.487L28.3416 13.3155L34.9708 6.68648L34.1422 5.85789C30.3647 2.08039 25.3423 0 20 0L15.3125 4.6875L20 9.375C22.838 9.375 25.5062 10.4802 27.513 12.487Z" fill="#CF2D48"/>
<path d="M20 9.375V0C14.6578 0 9.63538 2.08039 5.8578 5.85781C5.23351 6.48211 4.65655 7.14109 4.12671 7.8293L10.8695 14.5721C12.7252 11.4625 16.1231 9.375 20 9.375Z" fill="#EB4132"/>
</svg>
